<svg width="303" height="258" viewBox="0 0 303 258" fill="none" xmlns="http://www.w3.org/2000/svg">
<path d="M90.0624 34.0776C19.5105 -16.8285 -15.208 96.2318 14.1573 54.1837C43.5226 12.1355 90.0624 34.0776 90.0624 34.0776Z" fill="black" stroke="black" stroke-width="5"/>
<path d="M292.666 67.4444C272.742 -17.2433 172.424 45.3977 222.159 32.8835C271.896 20.3705 292.666 67.4444 292.666 67.4444Z" fill="black" stroke="black" stroke-width="5"/>
<path d="M96.8603 246.881C130.587 240.964 150.733 195.156 141.857 144.567C132.982 93.9767 98.4462 57.7621 64.7197 63.679C30.9931 69.596 10.8473 115.404 19.7227 165.994C28.598 216.583 63.1337 252.798 96.8603 246.881Z" fill="white" stroke="black" stroke-width="5"/>
<path d="M221.79 239.28C256.032 239.28 283.79 197.643 283.79 146.28C283.79 94.9175 256.032 53.28 221.79 53.28C187.548 53.28 159.79 94.9175 159.79 146.28C159.79 197.643 187.548 239.28 221.79 239.28Z" fill="white" stroke="black" stroke-width="5"/>
<path d="M92.4211 203.674C104.557 199.923 109.636 181.483 103.764 162.488C97.8929 143.492 83.295 131.134 71.1589 134.886C59.0229 138.637 53.9444 157.077 59.8158 176.072C65.6872 195.068 80.2851 207.426 92.4211 203.674Z" fill="black" stroke="black"/>
<path d="M82.79 185.907C89.7637 185.907 95.417 180.254 95.417 173.28C95.417 166.306 89.7637 160.653 82.79 160.653C75.8163 160.653 70.163 166.306 70.163 173.28C70.163 180.254 75.8163 185.907 82.79 185.907Z" fill="white" stroke="black" stroke-width="5"/>
<path d="M195.202 202.364C207.228 206.453 222.166 194.508 228.566 175.684C234.966 156.86 230.405 138.285 218.378 134.196C206.352 130.107 191.414 142.052 185.014 160.876C178.614 179.7 183.175 198.275 195.202 202.364Z" fill="black" stroke="black"/>
<path d="M203.79 185.907C210.764 185.907 216.417 180.254 216.417 173.28C216.417 166.306 210.764 160.653 203.79 160.653C196.816 160.653 191.163 166.306 191.163 173.28C191.163 180.254 196.816 185.907 203.79 185.907Z" fill="white" stroke="black" stroke-width="5"/>
</svg>
