<svg width="108" height="84" viewBox="0 0 108 84" fill="none" xmlns="http://www.w3.org/2000/svg">
<path fill-rule="evenodd" clip-rule="evenodd" d="M28.6927 17.8333L63.6667 0.346329V83.6537L28.6927 66.1667H10.5C7.93624 66.1667 5.47749 65.1482 3.66463 63.3354C1.85178 61.5225 0.833332 59.0638 0.833332 56.5V27.5C0.833332 24.9362 1.85178 22.4775 3.66463 20.6646C5.47749 18.8518 7.93624 17.8333 10.5 17.8333H28.6927ZM34.6667 25.6537V58.3463L54 68.013V15.987L34.6667 25.6537ZM25 27.5H10.5V56.5H25V27.5ZM91.12 0.708829C100.946 10.4867 107.167 25.412 107.167 42C107.167 58.588 100.951 73.5133 91.12 83.2912L83.4978 77.2012C91.9417 69.3228 97.5 56.5628 97.5 42C97.5 27.442 91.9368 14.6723 83.4978 6.79883L91.12 0.708829ZM76.1077 12.71C83.3142 19.8247 87.8333 30.3517 87.8333 42C87.8333 53.6483 83.3142 64.1753 76.1125 71.29L68.4855 65.1903C74.3338 59.922 78.1667 51.541 78.1667 42C78.1667 32.459 74.3338 24.078 68.4855 18.8097L76.1125 12.71H76.1077Z" fill="white"/>
</svg>
