<svg width="120" height="86" viewBox="0 0 120 86" fill="none" xmlns="http://www.w3.org/2000/svg">
<path fill-rule="evenodd" clip-rule="evenodd" d="M99.5 36.0478L112.111 24.7739L119.889 31.7261L107.277 43L119.889 54.2739L112.111 61.2261L99.5 49.9522L86.8885 61.2261L79.1115 54.2739L91.723 43L79.1115 31.7261L86.8885 24.7739L99.5 36.0478ZM32.202 18.4167L72 0.628166V85.3718L32.202 67.5833H11.5C8.58262 67.5833 5.78473 66.5473 3.72183 64.7032C1.65893 62.8591 0.5 60.358 0.5 57.75V28.25C0.5 25.642 1.65893 23.1409 3.72183 21.2968C5.78473 19.4527 8.58262 18.4167 11.5 18.4167H32.202ZM39 26.3718V59.6282L61 69.4615V16.5385L39 26.3718ZM28 28.25H11.5V57.75H28V28.25Z" fill="white"/>
</svg>
