<svg viewBox="0 0 91 91" xml:space="preserve" xmlns="http://www.w3.org/2000/svg"><path d="M36.891 31.362h30.602v3.4H36.891zM36.891 44.962h30.602v3.4H36.891zM36.891 58.562h30.602v3.4H36.891zM27.594 36.462a3.399 3.399 0 0 0 3.398-3.4 3.398 3.398 0 0 0-3.398-3.399h-.02a3.392 3.392 0 0 0-3.391 3.399 3.41 3.41 0 0 0 3.411 3.4zM27.594 50.062c1.877 0 3.398-1.521 3.398-3.399s-1.521-3.399-3.398-3.399h-.02c-1.877 0-3.391 1.521-3.391 3.399s1.532 3.399 3.411 3.399zM27.594 63.662a3.398 3.398 0 0 0 3.398-3.399c0-1.879-1.521-3.4-3.398-3.4h-.02a3.392 3.392 0 0 0-3.391 3.4 3.409 3.409 0 0 0 3.411 3.399z" fill="#ffffff" class="fill-000000"></path></svg>