<svg viewBox="0 0 512 512" xml:space="preserve" xmlns="http://www.w3.org/2000/svg"><path d="M194.104 309.818a9.003 9.003 0 0 0 9.337.858c16.14-7.92 33.375-16.946 52.559-27.529 19.244 10.616 36.479 19.642 52.563 27.528a9 9 0 0 0 12.841-9.554 31906.72 31906.72 0 0 1-10.052-60.926c15.962-16.476 29.469-30.039 42.275-42.458a9 9 0 0 0-4.733-15.33c-19.149-3.308-38.904-6.721-58.451-9.99-3.876-8.364-7.747-16.731-11.619-25.098-4.884-10.555-9.767-21.108-14.659-31.658a9.002 9.002 0 0 0-16.33-.001c-4.967 10.71-9.925 21.425-14.883 32.14-3.797 8.207-7.594 16.413-11.396 24.618-19.083 3.193-38.368 6.522-57.063 9.75l-1.388.239a9.001 9.001 0 0 0-4.735 15.33c12.819 12.431 26.325 25.993 42.277 42.458a31799.106 31799.106 0 0 1-10.051 60.928 9.004 9.004 0 0 0 3.508 8.695zm-10.621-112.66a8473.167 8473.167 0 0 1 45.719-7.768 9 9 0 0 0 6.688-5.093c4.471-9.644 8.935-19.292 13.399-28.939L256 140.856l6.489 14.022c4.538 9.808 9.077 19.615 13.622 29.419a9 9 0 0 0 6.688 5.093 7995.46 7995.46 0 0 1 45.72 7.767c-10.137 10.058-20.975 21.068-33.252 33.777a9 9 0 0 0-2.409 7.708c2.674 16.314 5.319 32.386 7.898 47.979-12.531-6.422-25.874-13.569-40.387-21.628a8.987 8.987 0 0 0-8.738 0c-14.482 8.042-27.824 15.188-40.385 21.627 2.628-15.89 5.273-31.961 7.897-47.978a9.003 9.003 0 0 0-2.409-7.708c-12.272-12.703-23.108-23.712-33.251-33.776z" fill="#ffffff" class="fill-000000"></path><path d="M27.07 328.569c15.044 4.393 31.043 9.366 50.041 15.559a26324.97 26324.97 0 0 1 17.131 51.269 9 9 0 0 0 15.818 2.449c9.262-12.738 18.915-26.769 29.426-42.774 8.156.146 15.757.217 23.109.217 10.151 0 19.576-.135 28.813-.411a9.002 9.002 0 0 0 6.893-14.446 27676.928 27676.928 0 0 1-32.69-43.05c5.619-19.262 10.528-35.277 15.355-50.103a8.998 8.998 0 0 0-11.345-11.344c-16.09 5.241-32.684 10.646-49.292 16.151-6.289-4.79-12.576-9.584-18.863-14.378a34837.3 34837.3 0 0 0-24.669-18.799 8.998 8.998 0 0 0-14.439 7.626c.536 10.364 1.082 20.727 1.628 31.089.414 7.857.827 15.714 1.237 23.571-13.645 10.416-27.385 21.012-40.709 31.287l-.416.321a9 9 0 0 0 2.972 15.766zm52.841-35.939a8.999 8.999 0 0 0 3.534-7.626c-.49-9.442-.987-18.885-1.484-28.327l-.615-11.675 9.206 7.019c7.55 5.757 15.099 11.514 22.653 17.265a8.996 8.996 0 0 0 8.292 1.379 6828.787 6828.787 0 0 1 37.011-12.176c-3.584 11.506-7.323 23.993-11.447 38.217a8.996 8.996 0 0 0 1.47 7.94 29687.084 29687.084 0 0 0 24.727 32.59c-3.475.035-7.021.053-10.663.053-8.703 0-17.771-.101-27.724-.31a9.036 9.036 0 0 0-7.727 4.082c-7.55 11.578-14.635 22.109-21.426 31.846a28910.24 28910.24 0 0 0-12.979-38.79 8.999 8.999 0 0 0-5.729-5.69c-14.038-4.601-26.458-8.552-38.017-12.087a7142.97 7142.97 0 0 1 30.918-23.71zM333.229 238.127a8.996 8.996 0 0 0-2.194 9.15c4.827 14.825 9.736 30.841 15.356 50.104-10.884 14.36-21.78 28.71-32.69 43.051a9 9 0 0 0 6.893 14.445 957.11 957.11 0 0 0 28.812.411c7.352 0 14.954-.071 23.109-.217 10.495 15.983 20.147 30.013 29.426 42.774a9.002 9.002 0 0 0 15.818-2.448 27748.547 27748.547 0 0 1 17.131-51.27c18.995-6.191 34.993-11.165 50.041-15.559a9 9 0 0 0 2.973-15.767l-.742-.572c-13.219-10.193-26.847-20.704-40.384-31.036.418-8.029.841-16.058 1.264-24.086.537-10.191 1.074-20.382 1.602-30.574a9.002 9.002 0 0 0-14.439-7.626 32319.514 32319.514 0 0 0-24.244 18.476c-6.429 4.901-12.857 9.803-19.289 14.701-16.498-5.47-33.146-10.893-49.291-16.151a8.999 8.999 0 0 0-9.152 2.194zm57.273 32.537a9.006 9.006 0 0 0 8.293-1.379c7.695-5.859 15.387-11.724 23.078-17.588l8.78-6.694-.587 11.158c-.507 9.614-1.013 19.229-1.512 28.844a9.002 9.002 0 0 0 3.534 7.625 7180.564 7180.564 0 0 1 30.919 23.709c-11.562 3.536-23.981 7.486-38.019 12.087a9.003 9.003 0 0 0-5.729 5.691 28442.029 28442.029 0 0 0-12.978 38.79c-6.799-9.747-13.884-20.279-21.426-31.847a9 9 0 0 0-7.727-4.082c-9.951.208-19.021.31-27.725.31-3.642 0-7.188-.018-10.662-.053a30306.75 30306.75 0 0 0 24.728-32.589 9 9 0 0 0 1.47-7.942c-4.124-14.224-7.863-26.711-11.447-38.216a6879.21 6879.21 0 0 1 37.01 12.176z" fill="#ffffff" class="fill-000000"></path></svg>