<svg width="664" height="475" viewBox="0 0 664 475" fill="none" xmlns="http://www.w3.org/2000/svg">
<path d="M-0.00976562 0V468.109H663.995V0H-0.00976562Z" fill="url(#paint0_linear_5_14)"/>
<path d="M258.301 429.349C307.653 429.349 347.661 378.469 347.661 315.706C347.661 252.942 307.653 202.063 258.301 202.063C208.949 202.063 168.942 252.942 168.942 315.706C168.942 378.469 208.949 429.349 258.301 429.349Z" fill="#FFC487"/>
<path fill-rule="evenodd" clip-rule="evenodd" d="M159.576 234.386L125.691 304.509L122.06 353.595L68.634 440.2L10.7236 341.908L-0.00805664 361.081V474.71C-0.00805664 474.87 0.0938605 475 0.220248 475H663.766C663.892 475 663.994 474.87 663.994 474.71V363.83L618.236 421.38L568.618 398.006L537.553 319.445L480.048 311.005L416.897 280.099L401.613 323.208L371.358 334.896L310.314 401.508L262.355 366.966L227.346 285.81L200.722 278.797L159.576 234.386Z" fill="#65449D"/>
<path d="M-0.00805664 367.606V474.71C-0.00805664 474.87 0.0938605 475 0.220248 475H663.766C663.892 475 663.994 474.87 663.994 474.71V367.606H-0.00805664Z" fill="url(#paint1_radial_5_14)"/>
<path d="M427.085 226.88C428.405 225.353 429.726 223.827 431.782 222.987C433.838 222.147 436.629 221.995 438.429 222.834C440.23 223.674 441.04 225.506 441.881 225.544C442.721 225.582 443.592 223.827 445.197 222.987C446.803 222.147 449.144 222.224 451.17 223.044C453.195 223.865 454.906 225.43 456.617 226.995" stroke="#442D5E" stroke-width="12.9495" stroke-linecap="round" stroke-linejoin="round"/>
<path d="M390.694 278.196C391.326 277.466 391.958 276.736 392.941 276.334C393.924 275.933 395.259 275.86 396.121 276.261C396.982 276.663 397.369 277.539 397.771 277.557C398.173 277.576 398.59 276.736 399.358 276.334C400.126 275.933 401.245 275.969 402.214 276.362C403.183 276.754 404.001 277.503 404.819 278.251" stroke="#442D5E" stroke-width="6.19363" stroke-linecap="round" stroke-linejoin="round"/>
<path d="M456.122 256.568C457.147 255.383 458.173 254.197 459.77 253.545C461.367 252.892 463.534 252.774 464.933 253.426C466.332 254.078 466.961 255.501 467.614 255.531C468.266 255.56 468.942 254.197 470.19 253.545C471.437 252.892 473.255 252.952 474.828 253.589C476.402 254.226 477.73 255.442 479.059 256.657" stroke="#442D5E" stroke-width="10.0577" stroke-linecap="round" stroke-linejoin="round"/>
<path d="M651.409 232.889L614.941 426.328L641.504 424.155L641.054 443.716L639.703 453.497L635.037 475H663.766C663.892 475 663.994 474.87 663.994 474.71V463.673L661.764 447.52L662.214 423.611L663.994 423.648V298.092L651.409 232.889Z" fill="#592E7D"/>
<path d="M654.761 445.637C575.952 445.579 480.713 451.559 406.865 474.882H664V445.672C660.947 445.652 657.868 445.639 654.761 445.637Z" fill="#592E7D"/>
<path d="M556.159 424.963L587.528 281.521L619.285 423.351L596.823 422.948L596.436 440.677L599.921 462.435L573.199 462.032L577.459 445.109L578.621 437.856L579.009 423.351L556.159 424.963Z" fill="#592E7D"/>
<path d="M530.826 440.26L548.479 312.038L566.351 438.819L553.71 438.459L553.492 454.307L555.454 473.756L540.415 473.396L542.813 458.269L543.467 451.785L543.685 438.819L530.826 440.26Z" fill="#592E7D"/>
<path d="M501.481 424.897L526.426 275.963L551.679 423.224L533.817 422.805L533.509 441.213L536.28 463.804L515.031 463.386L518.419 445.815L519.342 438.285L519.65 423.224L501.481 424.897Z" fill="#592E7D"/>
<path d="M479.474 355.578L454.528 454.21L472.698 453.102L472.39 463.076L471.466 468.063L469.447 475H488.407L486.557 465.015L486.865 452.825L504.727 453.102L479.474 355.578Z" fill="#592E7D"/>
<path d="M600.761 436.471L613.029 362.263L625.449 435.637L616.664 435.429L616.513 444.601L617.876 455.857L607.425 455.649L609.091 446.894L609.546 443.142L609.697 435.637L600.761 436.471Z" fill="#592E7D"/>
<path d="M414.153 298.498L389.645 452.534L407.497 450.803L407.194 466.38L406.286 474.168L406.134 475H421.764L421.112 469.409L421.415 450.37L438.964 450.803L414.153 298.498Z" fill="#592E7D"/>
<path d="M334.159 412.604L322.191 475H346.413L334.159 412.604Z" fill="#592E7D"/>
<path d="M365.805 365.619L346.542 474.419L360.573 473.197L360.534 475H371.475L371.512 472.892L385.305 473.197L365.805 365.619Z" fill="#592E7D"/>
<path d="M394.337 333.177L365.895 458.83L386.612 457.418L386.261 470.125L385.453 475H402.812L402.413 472.595L402.764 457.065L423.13 457.418L394.337 333.177Z" fill="#592E7D"/>
<path d="M445.41 325.346L425.711 450.999L440.06 449.587L439.817 462.294L439.087 468.647L437.94 475H452.179L451.004 464.764L451.247 449.234L465.353 449.587L445.41 325.346Z" fill="#592E7D"/>
<path d="M488.166 434.769L504.806 345.483L521.651 433.766L509.736 433.515L509.531 444.551L511.379 458.094L497.205 457.844L499.465 447.31L500.081 442.795L500.286 433.766L488.166 434.769Z" fill="#592E7D"/>
<path d="M70.0687 461.299C44.6154 461.317 20.8723 461.941 -0.00805664 462.808V474.71C-0.00805664 474.87 0.0938605 475 0.220248 475H257.004C195.684 464.39 128.465 461.257 70.0687 461.299Z" fill="#592E7D"/>
<path d="M11.9739 294.417L-0.00805664 362.618V436.146L5.15616 435.693L4.84612 450.141L3.91636 457.366L0.507656 474.223L21.891 474.624L19.102 452.951L19.4117 435.292L37.3863 435.693L11.9739 294.417Z" fill="#592E7D"/>
<path d="M68.6545 242.957L34.3727 431.074L59.3434 428.961L58.9202 447.984L57.6507 457.495L53.9789 475H81.5018L78.3889 451.683L78.8124 428.433L103.36 428.961L68.6545 242.957Z" fill="#592E7D"/>
<path d="M16.7798 448.421L35.7624 348.114L54.9794 447.293L41.3869 447.012L41.1526 459.409L43.2617 474.624L27.0913 474.342L29.6692 462.508L30.3723 457.437L30.6066 447.293L16.7798 448.421Z" fill="#592E7D"/>
<path d="M103.522 369.369L88.9109 455.484L99.5537 454.516L99.3734 463.225L98.832 467.579L97.3828 475H108.924L107.671 464.918L107.851 454.275L118.314 454.516L103.522 369.369Z" fill="#592E7D"/>
<path d="M289.058 335.809L263.081 466.272L282.003 464.807L281.755 475H296.545L296.755 464.44L315.355 464.807L289.058 335.809Z" fill="#592E7D"/>
<path d="M253.964 412.998L242.849 464.521L250.945 463.942L250.808 469.152L250.396 471.757L249.591 475H257.883L257.12 470.165L257.257 463.797L265.215 463.942L253.964 412.998Z" fill="#592E7D"/>
<path d="M234.541 362.657L212.062 468.286L228.436 467.098L228.231 475H241.028L241.202 466.802L257.299 467.098L234.541 362.657Z" fill="#592E7D"/>
<path d="M199.339 300.01L174.237 447.327L192.521 445.672L192.211 460.569L191.282 468.017L189.912 475H207.907L206.467 463.465L206.777 445.258L224.752 445.672L199.339 300.01Z" fill="#592E7D"/>
<path d="M154.018 323.503L125.856 453.967L146.37 452.501L146.022 465.694L144.979 472.29L144.305 475H163.081L162.015 468.259L162.363 452.134L182.528 452.501L154.018 323.503Z" fill="#592E7D"/>
<path d="M120.192 390.624L105.625 475H135.107L120.192 390.624Z" fill="#592E7D"/>
<defs>
<linearGradient id="paint0_linear_5_14" x1="318.757" y1="-55.5579" x2="315.321" y2="409.927" gradientUnits="userSpaceOnUse">
<stop stop-color="#727DFF"/>
<stop offset="1" stop-color="#FFAB87"/>
</linearGradient>
<radialGradient id="paint1_radial_5_14" cx="0" cy="0" r="1" gradientUnits="userSpaceOnUse" gradientTransform="translate(350.232 485.826) rotate(-90.1079) scale(101.158 1646.43)">
<stop stop-color="#D6D6E4" stop-opacity="0.365079"/>
<stop offset="1" stop-color="#B8BBC8" stop-opacity="0"/>
</radialGradient>
</defs>
</svg>
