<?xml version="1.0" ?><svg viewBox="0 0 64 64" xmlns="http://www.w3.org/2000/svg"><defs><style>.cls-1{fill:#c1a591;}.cls-2{fill:#a1cdfb;}.cls-3{fill:#ac876c;}.cls-4{fill:#ebf7fe;}</style></defs><title/><g data-name="Layer 14" id="Layer_14"><rect class="cls-1" height="48" width="56" x="4" y="8"/><rect class="cls-2" height="18" width="20.03" x="36.03" y="34"/><polygon class="cls-2" points="56.06 30 36.03 30 36 12.02 56.03 12.02 56.06 30"/><rect class="cls-3" height="6" width="60" x="2" y="56"/><rect class="cls-3" height="6" width="60" x="2" y="2"/><rect class="cls-2" height="18" width="20.03" x="8" y="34"/><polygon class="cls-2" points="28.03 30 8 30 7.97 12.02 28 12.02 28.03 30"/><rect class="cls-3" height="48" width="2" x="31" y="8"/><path class="cls-4" d="M44,12v7a2,2,0,0,0,2,2h0a2,2,0,0,0,2-2h0a2,2,0,0,1,2-2h0a2,2,0,0,1,2,2v5a2,2,0,0,0,2,2h0a2,2,0,0,0,2-2V12Z"/><circle class="cls-4" cx="14" cy="18" r="2"/><circle class="cls-4" cx="50" cy="45" r="2"/><rect class="cls-4" height="2" transform="translate(-14.86 40.12) rotate(-45)" width="2.83" x="39.59" y="37"/><rect class="cls-4" height="2.83" transform="translate(-20.64 44.17) rotate(-45)" width="2" x="42" y="45.59"/><rect class="cls-4" height="2.83" transform="translate(-13.23 46.07) rotate(-45)" width="2" x="48" y="37.59"/><rect class="cls-4" height="2" transform="translate(-11.5 24.23) rotate(-45)" width="2.83" x="22.09" y="25"/><rect class="cls-4" height="2.83" transform="translate(-12.72 17.28) rotate(-45)" width="2" x="13.5" y="22.59"/><rect class="cls-4" height="2.83" transform="translate(-6.14 21.18) rotate(-45)" width="2" x="21.5" y="16.59"/><rect class="cls-4" height="2" transform="translate(-26.01 23.2) rotate(-45)" width="8.49" x="10.76" y="42"/><rect class="cls-4" height="2" transform="translate(-24.25 27.44) rotate(-45)" width="8.49" x="16.76" y="42"/></g></svg>